<svg id="Layer_1" data-name="Layer 1" xmlns="http://www.w3.org/2000/svg" viewBox="0 0 3000 2000"><defs><style>.cls-1{fill:#3f9;}.cls-2{fill:#82b378;}.cls-3{fill:#a8d29f;}.cls-4{fill:#f1a34f;}.cls-5{fill:#ffb973;}.cls-6{fill:#d86713;}.cls-7{fill:#d2e4ff;}.cls-8{fill:#f3f9ff;}.cls-9{fill:#339;}.cls-10{fill:#a6c7f9;}.cls-11{fill:#3c9;}.cls-12{fill:#1c468a;}.cls-13{fill:#233862;}.cls-14{fill:#e49963;}.cls-15{fill:#d68d5d;}.cls-16{fill:#163560;}.cls-17{fill:#2b478b;}.cls-18{fill:#e7f1fd;}.cls-19{fill:#f60;}.cls-20{fill:#c60;}.cls-21{fill:#2e3552;}.cls-22{fill:#4a75cb;}</style></defs><title>img-01</title><path class="cls-1" d="M2290.29,1525.94H461.12s-1.79-33.42-2.32-63.46c-2.6-151.64,30.15-316.19,121.51-429.61,71.42-88.68,183.91-153.63,360.44-151.73,35.48.38,68.46-.62,99.24-2.83h0q14-1,27.47-2.34h.09c203.9-20.32,306.07-96.06,399-169.94,44.89-35.72,86.81-70.26,136.88-98.39,58.07-32.61,126.8-56.3,221.78-61.41,48.89-2.64,95.39,10.5,134,42.29,71.21,58.6,106.59,173.26,88.07,316.39-12.54,96.94,15.79,149.49,64.3,183.85C2245.89,1183.88,2423.66,1173.49,2290.29,1525.94Z"/><path class="cls-2" d="M575.81,1394.12s19.83-25.07,1.22-41c0,0-13.59-8.92-24.68-8.19,0,0,15.71,28.53,10.63,31.37s-15.39-33.16-15.39-33.16-30.93-3.25-40.88,1.93c0,0,26.44,23.45,20.87,24.84s-34.13-21.62-34.13-21.62-28.79,5.31-27.26,24.34,11.46,24.9,15.82,24.4,29.87-11.06,30.42-7.19-14.8,16.52-25.55,17.12c0,0,20.3,24.25,33.79,17.25s14.64-18.1,23.05-22.26,15.59-4.15,12.12.1-18.69,8.37-23.5,17.58-9.13,15.43,4.83,13.16,36.65-13.34,37.64-26Z"/><path class="cls-2" d="M480.34,1373.15s78.2-3.26,95.47,21a61.86,61.86,0,0,0,15.57,23.67l1.83,5.41s-13.55-15.48-18.4-16.41C574.81,1406.79,582.4,1376.77,480.34,1373.15Z"/><path class="cls-2" d="M591.38,1417.79a54.19,54.19,0,0,1,18,37.48l-3.05.3s-5.36-24.85-15-34.56S591.38,1417.79,591.38,1417.79Z"/><path class="cls-3" d="M645.15,1362.59s-31.55-19.14-16.82-45.12c0,0,11.77-16,24.39-20,0,0-6.73,38.74,0,39.65s4.63-43.75,4.63-43.75,33.23-17.32,46.27-16c0,0-20.61,37.83-13.88,36.92s29.87-39.2,29.87-39.2,34.07-6.83,39.54,15-3.37,32.81-8.41,34.18-37.44.91-36.6,5.47,22.71,11.85,34.91,7.75c0,0-13.46,36-31.12,34.18s-23.14-13.67-34.08-14.59-18.93,2.28-13.46,5.47,24,1.05,32.81,9.18,16,13.15-.42,16.8-45.85,1.37-51.74-12.3Z"/><path class="cls-2" d="M743.59,1297s-88.34,31-98.44,65.62c0,0,.42,15.5-8.41,33.27v6.84s9.25-23.25,14.3-26.43C651,1376.27,631.27,1346.19,743.59,1297Z"/><path class="cls-2" d="M636.74,1395.86s-13.62,22.41-5.86,49.7l3.51-1s-3.41-30,3.72-45.17S636.74,1395.86,636.74,1395.86Z"/><path class="cls-3" d="M595,1336.19s41.59-25.23,22.18-59.47c0,0-15.53-21-32.16-26.43,0,0,8.87,51.06,0,52.26s-6.1-57.67-6.1-57.67-43.81-22.83-61-21c0,0,27.17,49.86,18.3,48.66s-39.37-51.67-39.37-51.67-44.91-9-52.12,19.83,4.44,43.25,11.09,45,49.35,1.2,48.24,7.21-29.94,15.62-46,10.21c0,0,17.74,47.46,41,45.06s30.5-18,44.91-19.22,25,3,17.75,7.2-31.61,1.38-43.25,12.11-21.07,17.33.55,22.14,60.44,1.8,68.21-16.22Z"/><path class="cls-2" d="M465.21,1249.69s116.44,40.85,129.75,86.5c0,0-.56,20.43,11.09,43.86v9s-12.2-30.64-18.85-34.84C587.2,1354.22,613.26,1314.57,465.21,1249.69Z"/><path class="cls-2" d="M606.05,1380.05s18,29.54,7.72,65.51l-4.62-1.35s4.48-39.61-4.91-59.53S606.05,1380.05,606.05,1380.05Z"/><path class="cls-4" d="M596.36,1523.54c-45,0-81.46-39.51-81.46-88.25H677.82C677.82,1484,641.35,1523.54,596.36,1523.54Z"/><path class="cls-5" d="M617.58,1522.87a75.12,75.12,0,0,1-10.12.67c-45,0-81.46-39.51-81.46-88.25h20.24C546.24,1480.32,577.37,1517.47,617.58,1522.87Z"/><path class="cls-4" d="M513.77,1528H679c0-6-4.5-10.88-10.05-10.88H523.82c-5.55,0-10.05,4.87-10.05,10.88Z"/><rect class="cls-6" x="513.04" y="1435.29" width="167.46" height="2.71" transform="translate(1193.55 2873.28) rotate(180)"/><path class="cls-7" d="M739.14,689.44h895.78c13.07,0,23.66,11.47,23.66,25.63v556.86c0,14.15-10.59,25.63-23.66,25.63H739.14c-13.07,0-23.66-11.48-23.66-25.63V715.07C715.48,700.91,726.07,689.44,739.14,689.44Z"/><rect class="cls-8" x="783.66" y="915.88" width="486.19" height="355.89" transform="translate(2053.51 2187.65) rotate(180)"/><path class="cls-9" d="M1249.81,1097.52s-83-11.21-133.74,39.42-145.23,4.49-183.28,0c-66.15-7.8-118,15.65-133.39,41.43v77.32h450.41Z"/><rect class="cls-10" x="1181.98" y="973.08" width="3.48" height="120.74" transform="translate(2367.45 2066.9) rotate(180)"/><rect class="cls-10" x="1045.47" y="1024.89" width="3.48" height="120.74" transform="translate(2094.42 2170.53) rotate(180)"/><rect class="cls-10" x="904.61" y="997.57" width="3.48" height="120.74" transform="translate(1812.7 2115.89) rotate(180)"/><path class="cls-10" d="M1143.15,991.61h26.66a3,3,0,0,0,2.9-3.14h0a3,3,0,0,0-2.9-3.14h-26.66a3,3,0,0,0-2.9,3.14h0A3,3,0,0,0,1143.15,991.61Z"/><path class="cls-10" d="M1143.15,1002.91h26.66a3,3,0,0,0,2.9-3.14h0a3,3,0,0,0-2.9-3.14h-26.66a3,3,0,0,0-2.9,3.14h0A3,3,0,0,0,1143.15,1002.91Z"/><path class="cls-10" d="M1008.66,1053.15h26.67a3,3,0,0,0,2.9-3.14h0a3,3,0,0,0-2.9-3.14h-26.67a3,3,0,0,0-2.9,3.14h0A3,3,0,0,0,1008.66,1053.15Z"/><path class="cls-10" d="M1008.66,1064.23h26.67a3,3,0,0,0,2.9-3.15h0a3,3,0,0,0-2.9-3.14h-26.67a3,3,0,0,0-2.9,3.14h0A3,3,0,0,0,1008.66,1064.23Z"/><path class="cls-10" d="M865.48,1007.62h26.67a3,3,0,0,0,2.89-3.14h0a3,3,0,0,0-2.89-3.14H865.48a3,3,0,0,0-2.9,3.14h0A3,3,0,0,0,865.48,1007.62Z"/><path class="cls-10" d="M865.48,1018.69h26.67a3,3,0,0,0,2.89-3.14h0a3,3,0,0,0-2.89-3.14H865.48a3,3,0,0,0-2.9,3.14h0A3,3,0,0,0,865.48,1018.69Z"/><path class="cls-8" d="M1432.52,845.21c0-28.72-21.49-52-48-52s-48,23.29-48,52,21.49,52,48,52S1432.52,873.94,1432.52,845.21Z"/><path class="cls-9" d="M1340.58,845.21c0,26.29,19.67,47.6,43.94,47.6a42,42,0,0,0,29.7-12.52l-29.7-35.08v-47.6C1360.25,797.61,1340.58,818.92,1340.58,845.21Z"/><path class="cls-10" d="M1401.25,836.83H1417a1.38,1.38,0,0,0,1.32-1.43h0A1.39,1.39,0,0,0,1417,834h-15.78a1.39,1.39,0,0,0-1.32,1.44h0A1.38,1.38,0,0,0,1401.25,836.83Z"/><path class="cls-8" d="M1551.71,845.21c0-28.72-21.49-52-48-52s-48,23.29-48,52,21.49,52,48,52S1551.71,873.94,1551.71,845.21Z"/><path class="cls-11" d="M1503.7,845.21l-27,37.56a41.6,41.6,0,0,0,27,10c24.28,0,44-21.31,44-47.6s-19.67-47.6-44-47.6c-22.91,0-41.72,19-43.75,43.25Z"/><path class="cls-10" d="M1469.87,857h11a1.39,1.39,0,0,0,1.33-1.43h0a1.39,1.39,0,0,0-1.33-1.43h-11a1.38,1.38,0,0,0-1.32,1.43h0A1.38,1.38,0,0,0,1469.87,857Z"/><path class="cls-8" d="M1432.52,988.46c0-28.72-21.49-52-48-52s-48,23.29-48,52,21.49,52,48,52S1432.52,1017.18,1432.52,988.46Z"/><path class="cls-11" d="M1340.58,988.46c0,26.29,19.67,47.6,43.94,47.6a42,42,0,0,0,29.7-12.52l-29.7-35.08v-47.6C1360.25,940.86,1340.58,962.17,1340.58,988.46Z"/><path class="cls-10" d="M1401.25,980.07H1417a1.38,1.38,0,0,0,1.32-1.43h0a1.38,1.38,0,0,0-1.32-1.43h-15.78a1.38,1.38,0,0,0-1.32,1.43h0A1.38,1.38,0,0,0,1401.25,980.07Z"/><path class="cls-8" d="M1551.71,988.46c0-28.72-21.49-52-48-52s-48,23.29-48,52,21.49,52,48,52S1551.71,1017.18,1551.71,988.46Z"/><path class="cls-9" d="M1460,984.11c2-24.25,20.84-43.25,43.75-43.25,24.28,0,44,21.31,44,47.6s-19.67,47.6-44,47.6a41.61,41.61,0,0,1-27-10l27-37.55Z"/><path class="cls-10" d="M1469.87,1000.23h11a1.39,1.39,0,0,0,1.33-1.43h0a1.39,1.39,0,0,0-1.33-1.43h-11a1.38,1.38,0,0,0-1.32,1.43h0A1.39,1.39,0,0,0,1469.87,1000.23Z"/><rect class="cls-8" x="1315.22" y="1081.64" width="260.94" height="190.02" transform="translate(2891.37 2353.29) rotate(180)"/><polygon class="cls-10" points="1326.46 1258.38 1565.97 1258.38 1565.97 1105.06 1563 1105.06 1563 1255.15 1326.46 1255.15 1326.46 1258.38"/><path class="cls-11" d="M1491.1,1202.93c29.32-25.28,60.5,0,60.5,0v43.23H1332.41V1134.42C1392,1136.05,1461.78,1228.22,1491.1,1202.93Z"/><path class="cls-10" d="M1549.09,1116.75H1447a2.73,2.73,0,0,1,0-5.44h102.14a2.73,2.73,0,0,1,0,5.44Z"/><path class="cls-10" d="M1549.09,1130H1447a2.73,2.73,0,0,1,0-5.44h102.14a2.73,2.73,0,0,1,0,5.44Z"/><path class="cls-10" d="M1549.55,1142.58h-67.63a2.15,2.15,0,0,1-2.05-2.23v-1a2.15,2.15,0,0,1,2.05-2.22h67.63a2.15,2.15,0,0,1,2,2.22v1A2.15,2.15,0,0,1,1549.55,1142.58Z"/><path class="cls-11" d="M1258.16,879.45H795.35c-6.46,0-11.69-5.67-11.69-12.66h0c0-7,5.23-12.67,11.69-12.67h462.81c6.46,0,11.69,5.67,11.69,12.67h0C1269.85,873.78,1264.62,879.45,1258.16,879.45Z"/><path class="cls-11" d="M1258.16,821.54H795.35c-6.46,0-11.69-5.67-11.69-12.66h0c0-7,5.23-12.67,11.69-12.67h462.81c6.46,0,11.69,5.67,11.69,12.67h0C1269.85,815.87,1264.62,821.54,1258.16,821.54Z"/><path class="cls-11" d="M1544.11,760.28H795.86c-6,0-10.93-5.3-10.93-11.84h0c0-6.54,4.9-11.84,10.93-11.84h748.25c6,0,10.93,5.3,10.93,11.84h0C1555,755,1550.14,760.28,1544.11,760.28Z"/><rect class="cls-12" x="1180.47" y="1297.56" width="13.12" height="229.3"/><path class="cls-12" d="M1608.79,703.16H765.27c-5.17,0-9.35-4.54-9.35-10.13h0c0-5.59,4.18-10.13,9.35-10.13h843.52c5.17,0,9.35,4.54,9.35,10.13h0C1618.14,698.62,1614,703.16,1608.79,703.16Z"/><path class="cls-13" d="M1325.17,1516.43H1048.9a5.83,5.83,0,0,0-5.58,6h0a5.83,5.83,0,0,0,5.58,6h276.27a5.82,5.82,0,0,0,5.57-6h0A5.82,5.82,0,0,0,1325.17,1516.43Z"/><polygon class="cls-14" points="695.45 1441.24 706.4 1491.22 722.81 1491.12 723.41 1441.24 695.45 1441.24"/><polygon class="cls-14" points="833.46 1443.37 864.63 1491.22 876.77 1474.32 858.01 1436.79 833.46 1443.37"/><path d="M752.43,784.47c-5.66-3.49-12.45-3.87-17.2-3.56a7.79,7.79,0,0,1,3.63-1.87c-2.94-.47-9.51,2.69-9.51,2.69-41-17.09-47.39,48.23-46.53,63.41s-13.76,20.13-35.07,32.09c-40.65,22.81-44.22,53.36-44.22,53.36.32.2.65.44,1,.7,2-3.7,6.17-10.66,9.67-11.71-.13.34-4.14,9.58-5.63,14.87,12,9.88,34.42,31.78,50.06,47.31-.07-3,0-7.35,1.07-9.62l1.93,12.6c8.36,8.33,14.13,14.2,14.13,14.2-1-12.27,51.2-77,78.45-96.37,6.64-10.58,9-29.27,9.17-30.74-1.14,14.82-3.48,23.13-5.58,27.81C780.88,876.63,767.45,793.71,752.43,784.47Z"/><path class="cls-14" d="M752.6,903.53c.14.07-13.16,7.55-23.16,4.59-9.4-2.78-15.55-16-15.42-16,4-.85,5.13-6.78,5.05-32.27l1.8.39,30.28,6.49s-.69,10.33-.71,20C750.42,894.92,750.87,902.66,752.6,903.53Z"/><path class="cls-15" d="M751.15,866.7s-.69,10.33-.71,20c-17-.52-25.9-17.26-29.57-26.54Z"/><path class="cls-16" d="M717.74,856.64s-8.88-15.2-11-28.2c-1.52-9.28,2.84-43.67,34.74-38.72a41.22,41.22,0,0,1,18,7.36c6.93,5.07,16.92,16,5.74,46l-2.9,10.14Z"/><path class="cls-17" d="M871.83,1461.21l-16.05.53-17.38.58s-40.12-48.41-62.63-126c-.53-1.8-1.08-3.63-1.67-5.47-12.31-38.92-37.85-87.76-51.31-132-2.14-7-4.07-13.67-5.79-19.94-.55-2-1.09-4-1.6-5.93-9.92-37.33-12.79-61.84-15.44-88l97.18.84S812.83,1264.64,871.83,1461.21Z"/><path class="cls-18" d="M783.53,1025.32c-.24,50.1,6.79,71.59,6.79,71.59s-41.61,22.9-91.06,6c-.58-.19-38.17-9.49-38.17-9.49.83-2,13.59-35.66,14.39-37.52,10.44-24.29,10.19-35.76,11.43-43.22a172.1,172.1,0,0,0,1.21-42,361.2,361.2,0,0,0-12-65.91c13.48-3.32,26.1-9.16,40.12-14.86,3.23,4.35,13.09,8.91,21.64,8.7,9.85-.24,13-4.8,12.53-9.79,10.5,6.33,18.88,12.31,18.88,12.31,8.92,16.78,27,33.09,28.32,58.84C797.94,966.36,783.54,1023.91,783.53,1025.32Z"/><path class="cls-19" d="M833,984.11c-8.48-21.91-33.59-71.55-68.55-88.77l12.7,77.15s-1.61,12,5.71,21.79c17.93,24.09,44.7,41.31,44.7,41.31s22.32-2.44,55.37-14.36c10.38-3.74,32.67-24,32.67-24l.3-15.81s-29.55,6.45-39.79,7.71c-5.85.72-19.35,2.59-28.87,3.91C841.2,993.86,835.38,990.21,833,984.11Z"/><path class="cls-14" d="M756.8,875.91s-40.08.72-40.11-26.33-5.22-45.18,20.37-46.78,30.58,8.71,32.62,17.74S767.23,875,756.8,875.91Z"/><path d="M755.32,802.13s-11,31.74-27.82,36.43-24.15-.19-24.15-.19,2.4-27.65,5.08-47.06C708.43,791.31,747,787,755.32,802.13Z"/><path d="M752.6,804.71s8.2,7.08,10.2,14,2.89,21.07,6.71,20.59c0,0,8.27-21.57-1-33.77C758.63,792.56,752.6,804.71,752.6,804.71Z"/><path class="cls-14" d="M915.92,981.39s11.62-19.13,32.05-8.74c2.2,1.68,8.44,7.26,1.41,14-5.18,4.94-5.71,1.28-13.44,7.64s-14,6.22-20.32,3Z"/><path class="cls-14" d="M705.85,1488.43a51.81,51.81,0,0,1-2.09,20.49s-2.68,13.25,9.37,13.5,15-1,13.64-9.11-4-22.19-4-22.19Z"/><path class="cls-19" d="M727.91,1528.08s-.26.17-.76.44H703.56a6.35,6.35,0,0,1-.66-.44c-1.36-6.65.86-19.17.86-19.17,13.65,13.55,22.19-.33,22.19-.33C728.17,1514.37,727.91,1528.08,727.91,1528.08Z"/><path class="cls-14" d="M905.81,1514.63s-22.22-26.71-29-40.31l-16.52,9.17,36.93,37.57,8.64-1.23Z"/><path class="cls-19" d="M919.59,1528.52h-30.4c-2.93-2.37-5.66-7.86-9.06-15.23-1.81-3.92-5.88-6.09-10.06-7.28v22.25h-6.3l-6-23.65c-3.93-7.83-.31-14.93,2.46-21.12,3.22,0,11.88,2.38,28.29,22.42,5.4,6.57,11.36,8.93,17.27,8.72a1,1,0,0,0,.24.14C916,1519.59,918.78,1525.59,919.59,1528.52Z"/><path class="cls-19" d="M750.41,888.88s23.2,62.07,23.88,74.64S777,1169,777,1169s-1.37,8.87,14.32,5.17,19.78-7.39,19.78-7.39-15-119-10.91-160.35c3.56-36-23-92-30-105.93a9.85,9.85,0,0,0-4.67-4.59Z"/><path class="cls-13" d="M855.78,1461.74l-17.38.58s-40.12-48.41-62.63-126c-.53-1.8-1.08-3.63-1.67-5.47-12.31-38.92-37.85-87.76-51.31-132-2.14-7-4.07-13.67-5.79-19.94-.55-2-1.09-4-1.6-5.93l14.31-11.76s43,75.37,56.26,146.31C797.53,1369.16,843.8,1443.3,855.78,1461.74Z"/><path class="cls-17" d="M731.2,1314.15c.25,34.5-1.36,113.8-5.51,146.64H710.3c-8.5,0-12.75-.14-12.75-.14-10.4-57.08-17.8-104.32-23.19-145-4.42-33.4-8.35-62-11.37-86.69s-5.16-45.58-5.91-63.13c-.12-2.76-.21-5.45-.25-8.06s-.07-5.17-.05-7.65l84-8.86C739.69,1201.68,731.06,1294.1,731.2,1314.15Z"/><path class="cls-13" d="M710.3,1460.79c-8.5,0-12.75-.14-12.75-.14-10.4-57.08-17.8-104.32-23.19-145-4.42-33.4-8.35-62-11.37-86.69s-5.16-45.58-5.91-63.13l30.81,19.64s-19.67,7.51-12.16,64.41S699.86,1452.73,710.3,1460.79Z"/><path class="cls-19" d="M714.27,1165.25s-5.92,23.16-26.38,20.2-49.56-16.26-49.56-16.26,8.74-29.93,19.62-69.26c13.16-47.61,29.46-109,37.14-147.71a259.83,259.83,0,0,0,4.17-26.39l17-35.69s25.31,61.55,26.67,77.07S714.27,1165.25,714.27,1165.25Z"/><path class="cls-14" d="M693.83,964.9l22.41-74.76c-.06,0-28.3,9.11-42.5,16.88,0,0-8.88,12.4-14.38,41,0,0-5.8,68.69,7.16,93.82,0,0,40.93,8.86,106.41-15.52v-16.26s-71.62,4.06-86.29,5.91Z"/><path class="cls-20" d="M713.36,999.72c-.92,25.13-6.37,73.9-55,100l-.38.2c13.16-47.61,29.46-109,37.14-147.71C704,966.69,713.86,985.89,713.36,999.72Z"/><path class="cls-19" d="M716.24,890.14s-41.53,3.17-51.54,27.31-13.19,104.44-.45,128.09c0,0,17.53,5.41,48.53-.87l1.15-.24s9.89-26.23,1-31.4c0,0-26.15,1.47-23.42-7.89S716.24,890.14,716.24,890.14Z"/><path class="cls-14" d="M765.58,1014.39s5.71-7.49,6.93-15.14,5-13.32,14.84-14.72,14.08-1.55,14,1.46-8,24-22.17,36.54S765.58,1014.39,765.58,1014.39Z"/><path class="cls-13" d="M928.15,989.45a1.61,1.61,0,0,0,1,0L1105,943.93a2.06,2.06,0,0,0,1.39-2.47,1.89,1.89,0,0,0-2.28-1.52L928.28,985.51a2.06,2.06,0,0,0-1.39,2.47A2,2,0,0,0,928.15,989.45Z"/><rect class="cls-21" x="426.53" y="1525.73" width="1943.11" height="4.98" rx="1.95"/><path class="cls-14" d="M1744.78,1099.09s-18.46,4.56-30.18,1.16-31.92,2.18-35.17,6.29-2.06,5.75,3.74,7.17,26.36,9.84,39.86,5,31.13-5.06,31.13-5.06Z"/><path class="cls-9" d="M1904.23,945s-20.72,141.62-55,154.31c-16.94,6.25-91.78,20.44-113.92,21.87,0,0-5.42-4.23-4.1-21.45,0,0,78.41-27.67,89.55-42.72,16.58-22.4-10.29-91.51,10.51-112.55S1887.07,914.39,1904.23,945Z"/><path class="cls-17" d="M1901.59,1491v-31.14h50.56a2.44,2.44,0,0,0,2.48-2.39v-4.94a2.44,2.44,0,0,0-2.48-2.39h-50.56V1274.32a9.19,9.19,0,0,0-9.33-9h-10a9.19,9.19,0,0,0-9.33,9v175.77h-50.56a2.44,2.44,0,0,0-2.48,2.39v4.94a2.44,2.44,0,0,0,2.48,2.39h50.56V1491c-36.59,2.66-65.89,15.33-74.12,31.69h176.91C1967.49,1506.28,1938.18,1493.61,1901.59,1491Z"/><path class="cls-9" d="M1897.25,1243.38a248.71,248.71,0,0,1-20.25,27.85c-22.27,27-46.52,49.32-50.75,70.39a92.78,92.78,0,0,1-3.91,13.49c-1.77,4.83-3.95,9.9-6.47,15.15-9.45,19.74-23.59,41.86-37.7,62-24.4,34.75-47.34,63.76-47.34,63.76l-42.08-1.73c1.68-4,20-52,44.59-110.69l30.79-73.56,4.08-9.73c3.12-7.47,6.2-14.83,9.21-22l41.41-98.93s92.13-33.55,101.7-11.81C1928.42,1185.48,1922,1203,1897.25,1243.38Z"/><path class="cls-16" d="M1729.51,1488.63s-2.06,33.54-8.78,34c-.89.06-76.84,0-76.84,0s.61-10.14,13-12.22,33.1-10.44,40.6-26.16C1705.36,1467.72,1729.51,1488.63,1729.51,1488.63Z"/><path class="cls-16" d="M1826.94,1393.27s29.27,18.08,26.43,24c-.38.79-16.55,28.63-16.55,28.63L1816,1481.29s-8.78-5-4.63-16.42,6.66-32.87-4-46.84C1796.18,1403.34,1826.94,1393.27,1826.94,1393.27Z"/><path class="cls-9" d="M1788.08,1163.05s-116.38,69.64-129.29,116.18,153.84,145.82,153.84,145.82,18.28-15.51,21.51-26.89c0,0-75.37-86.81-91.72-106.27-10-12,148.47-41.37,167.83-70.33s12.43-53.32,12.43-53.32Z"/><path class="cls-19" d="M2005.6,1252.36H1768.91a8.47,8.47,0,0,0-8.6,8.28v45.51a8.46,8.46,0,0,0,8.6,8.27H2005.6a8.46,8.46,0,0,0,8.6-8.27v-45.51A8.47,8.47,0,0,0,2005.6,1252.36Z"/><path class="cls-14" d="M1896.83,918.29s-45.92,24.68-73.63,17.79a64.26,64.26,0,0,1,17.62-15.34q-.91-3.9-1.59-7.31a167.89,167.89,0,0,1-3.13-20.57l21.16-18.23,14.23,2.9c.27,1.35.57,2.65.91,3.93C1879,906.77,1896.83,918.29,1896.83,918.29Z"/><path class="cls-9" d="M1926.17,1046.49c-4,51.31,1.26,129.35-3.25,142.86-3.89,11.67-48.15,4.73-65.82.84-6.54-1.44-14.47-3.5-22.64-5.93-22.82-6.8-47.7-16.5-50.36-23.7a7.08,7.08,0,0,1-.25-.83h0c0-.18-.07-.36-.1-.54a6.35,6.35,0,0,1,.15-2.46c.89-3.67,4.31-7.65,4.72-16.74.45-10.14.38-22.09.78-34.94,0-1.45,0-3,.2-4.47V1100c0-.27,0-.54,0-.82.39-14.33,1.17-29.4,2.07-44.34.57-9.38,1.24-18.68,2-27.58,2-23,4.67-43.43,8.23-56.35,5.8-21.07,18.59-34.81,30.24-44.88l8.42-6.94c9.39,2,20.51.66,30.56-3.92,10.87-5,14.63-8.52,16.52-7.17C1912.79,926.67,1930.86,983.76,1926.17,1046.49Z"/><path class="cls-9" d="M1834.46,1184.26c-22.82-6.8-47.7-16.5-50.36-23.7a7.08,7.08,0,0,1-.25-.83h0a1.47,1.47,0,0,0-.1-.54,6.35,6.35,0,0,1,.15-2.46c.89-3.67,4.31-7.65,4.72-16.74.45-10.14.38-22.09.78-34.94,0-1.45,0-3,.2-4.47V1100c0-.27,0-.54,0-.82l86.21-37.59S1880.81,1128.43,1834.46,1184.26Z"/><path class="cls-15" d="M1872.4,881.46c-3.13,7.61-12.51,25.55-33.17,32a167.89,167.89,0,0,1-3.13-20.57l21.16-18.23,14.23,2.9C1871.76,878.88,1872.06,880.18,1872.4,881.46Z"/><path class="cls-14" d="M1827.73,892.66s45.4,4.93,48.16-22.3,10.47-44.93-18.4-49.23-35.57,5.57-38.78,14.44S1816,890.68,1827.73,892.66Z"/><path d="M1875.69,872.24s-2.88-36.15-44.2-39.89c-28.31-2.56-12.53-26-9.51-29.72,0,0,21.69,2.86,43.92,6.39C1912.56,816.43,1880.27,866.61,1875.69,872.24Z"/><polygon class="cls-22" points="1766.6 1126.87 1654.1 1129.18 1622.12 1034.54 1618.14 1035.78 1651.96 1135.83 1766.75 1133.47 1766.6 1126.87"/><path class="cls-14" d="M1754.27,1120.87s-17.82,6.48-29.86,4.35-31.47,5.55-34.23,10-1.39,5.93,4.54,6.72,27.32,7,40.19.72,30.35-8.33,30.35-8.33Z"/><path class="cls-9" d="M1895.09,950.82s-4.36,143-37,159.2c-16.11,8-88.87,30-110.71,33.81,0,0-5.88-3.63-6.54-20.88,0,0,74.76-35.81,84.11-52,13.91-24-20.73-89.86-2.46-113S1874.52,922.21,1895.09,950.82Z"/></svg>